<?xml version="1.0" encoding="UTF-8"?>
<svg version="1.1" xmlns="http://www.w3.org/2000/svg" width="684" height="686">
<path d="M0 0 C225.72 0 451.44 0 684 0 C684 226.38 684 452.76 684 686 C458.28 686 232.56 686 0 686 C0 459.62 0 233.24 0 0 Z " fill="#FDFEFE" transform="translate(0,0)"/>
<path d="M0 0 C225.72 0 451.44 0 684 0 C684 226.38 684 452.76 684 686 C458.28 686 232.56 686 0 686 C0 459.62 0 233.24 0 0 Z M291.61035156 19.48730469 C289.06637907 19.98696258 286.52704033 20.39035872 283.9609375 20.7578125 C275.97533337 21.91022996 268.48630358 23.59612836 260.83422852 26.16381836 C256.34438783 27.653331 251.91778793 28.66426178 247.25 29.5 C241.32684962 30.59734154 236.19543743 32.3457151 230.7109375 34.80859375 C228.24542133 35.89214192 225.8179561 36.76056149 223.25 37.5625 C219.59632325 38.72982994 216.29763276 40.25628703 212.90234375 42.03125 C211.12113426 42.93831356 209.27972706 43.72432545 207.4375 44.5 C204.44070287 45.80769329 201.74670734 47.23670979 198.96875 48.9375 C197 50 197 50 193.71875 51.37890625 C189.98370214 52.95296214 186.49364945 54.89043978 183 56.9375 C181.83333333 57.61328125 180.66666667 58.2890625 179.5 58.96484375 C178.92290283 59.30136963 178.34580566 59.63789551 177.7512207 59.98461914 C176.00102665 60.99940474 174.24151858 61.99638631 172.48046875 62.9921875 C162.11987254 68.90861044 152.40731235 75.67592256 143 83 C142.13632813 83.66902344 141.27265625 84.33804688 140.3828125 85.02734375 C135.28153704 89.04002928 130.40471286 93.24724377 125.6171875 97.62890625 C123.51042626 99.53756904 121.37855413 101.40112489 119.2265625 103.2578125 C114.81487184 107.11015087 110.64231171 111.17402377 106.5 115.3125 C105.77296875 116.02728516 105.0459375 116.74207031 104.296875 117.47851562 C103.61109375 118.16236328 102.9253125 118.84621094 102.21875 119.55078125 C101.59935547 120.16606689 100.97996094 120.78135254 100.34179688 121.4152832 C98.78460336 122.90831314 98.78460336 122.90831314 99 125 C97.515 125.495 97.515 125.495 96 126 C94.49676685 127.6292184 93.0685196 129.32847366 91.6875 131.0625 C90.89085938 132.06023437 90.09421875 133.05796875 89.2734375 134.0859375 C86.46359672 137.68755472 83.70551848 141.31958799 81 145 C75.36726985 152.61140715 75.36726985 152.61140715 72.3125 156.1875 C70.22274644 158.72909216 68.62741454 161.15202455 67 164 C65.76700531 165.95088963 64.52621864 167.8965754 63.28125 169.83984375 C62.31502853 171.46886958 61.42812996 173.14531548 60.58203125 174.83984375 C58.90749058 178.18479042 57.07080502 181.39329316 55.1875 184.625 C48.08105205 196.22343771 48.08105205 196.22343771 44 209 C43.34 209 42.68 209 42 209 C38.65208002 216.65474709 38.65208002 216.65474709 36 224.5625 C35.07536682 227.74092656 33.90737016 230.45092959 32.5 233.4375 C30.38665977 237.95546197 29.08802494 242.14573489 28 247 C27.505 248.175625 27.505 248.175625 27 249.375 C26.0819394 251.78490907 25.59317858 253.91179978 25.125 256.4375 C24.34458192 260.62450494 23.24397111 264.61464645 22 268.6875 C20.21445767 274.79524075 19.22845874 280.74209013 18.49609375 287.0546875 C18.06693118 290.46771265 17.51604645 293.81156982 16.89599609 297.19189453 C10.6675555 331.52895728 12.04535312 366.41293949 18.55371094 400.57226562 C19.33505173 404.82262278 19.92580715 409.09700973 20.5078125 413.37890625 C21.06920172 416.36852664 22.03423422 419.11779274 23 422 C23.32550637 423.72311706 23.61782315 425.45286838 23.875 427.1875 C24.73380555 432.20401498 26.23431071 436.70290093 28.0625 441.44140625 C28.88004204 443.67261474 29.48655719 445.80992306 30 448.125 C30.86926276 451.90206209 32.37231969 455.21986888 34 458.7265625 C34.95581538 460.89954903 35.71916649 463.05138203 36.4375 465.3125 C39.05146114 473.41009702 42.11761698 481.00191767 47 488 C47.68091736 489.62123181 48.3600532 491.24335463 49.015625 492.875 C50.83093205 496.79375808 53.14850485 500.43945964 55.37890625 504.1328125 C56.83763027 506.71282077 57.97782921 509.22335697 59 512 C59.66 512 60.32 512 61 512 C61.24878906 512.85207031 61.49757812 513.70414063 61.75390625 514.58203125 C63.10635166 518.29171694 64.84944699 521.33961612 66.9375 524.6875 C67.62714844 525.80511719 68.31679687 526.92273438 69.02734375 528.07421875 C70.60344362 530.41184015 72.00225262 532.07703461 74 534 C75.16701311 535.58882508 76.31008948 537.19533265 77.4375 538.8125 C82.09451133 545.29443998 87.25219284 551.29400127 92.51660156 557.28710938 C93.57064175 558.50421701 94.6073738 559.73640893 95.63183594 560.97851562 C96.16325195 561.61982422 96.69466797 562.26113281 97.2421875 562.921875 C97.72284668 563.5106543 98.20350586 564.09943359 98.69873047 564.70605469 C99.9305163 566.23503613 99.9305163 566.23503613 102 566 C102.226875 566.7425 102.45375 567.485 102.6875 568.25 C104.28578576 571.59878921 106.07409441 572.72429565 109 575 C110.06247256 576.19008023 111.10199421 577.40082761 112.125 578.625 C122.13147358 590.29921918 134.85205204 599.67292385 147 609 C147.58523437 609.46664062 148.17046875 609.93328125 148.7734375 610.4140625 C155.15343176 615.40104491 162.1069083 619.53312026 169 623.76220703 C170.33978275 624.59139387 171.67313243 625.43106113 173 626.28076172 C176.893438 628.76834161 180.81378258 630.9798486 184.96875 632.99951172 C187.07901356 634.03891798 189.14914325 635.1358811 191.21875 636.25390625 C191.92386719 636.63353516 192.62898437 637.01316406 193.35546875 637.40429688 C194.78679271 638.1773161 196.21648283 638.95336814 197.64453125 639.73242188 C202.33141606 642.24723118 207.00641683 644.17307933 212 646 C213.72823253 647.00551711 215.45641176 648.01127473 217.17382812 649.03515625 C219.13460253 650.0711162 221.0450954 650.76116631 223.15625 651.4375 C223.94765381 651.69402344 224.73905762 651.95054687 225.55444336 652.21484375 C226.36147705 652.47394531 227.16851074 652.73304688 228 653 C229.5122372 653.49842977 231.02396638 653.9984038 232.53515625 654.5 C233.28216797 654.7475 234.02917969 654.995 234.79882812 655.25 C235.54583984 655.4975 236.29285156 655.745 237.0625 656 C237.81337891 656.2475 238.56425781 656.495 239.33789062 656.75 C242.98181176 657.95939128 246.59063305 659.21284113 250.171875 660.59765625 C255.28182637 662.53380693 260.52653007 663.52824959 265.87890625 664.58203125 C267.33806056 664.86956258 268.79635535 665.16147933 270.25390625 665.45703125 C275.52968016 666.52609252 280.81556826 667.51749016 286.11425781 668.46630859 C287.99496011 668.81412714 289.87230969 669.18076143 291.74511719 669.56884766 C325.77456521 676.61994066 363.4587516 675.49032725 397.45678711 668.70629883 C400.01544815 668.19625911 402.57109992 667.71109825 405.13891602 667.25268555 C412.04750156 666.01461382 418.77330764 664.68710568 425.4375 662.4375 C429.40828631 661.12762388 433.32141777 659.83822319 437.4375 659.0625 C510.75501015 644.0372797 578.533046 583.73557321 618.59716797 523.17578125 C625.50224866 512.46605637 631.50626785 501.20584026 637.4375 489.9375 C637.9337085 488.9983374 638.42991699 488.0591748 638.94116211 487.09155273 C642.01176065 481.18260342 644.62410403 475.21744618 647 469 C647.59190097 467.51358529 648.1856 466.02788509 648.78125 464.54296875 C652.24769547 455.7957802 655.47077009 447.07246032 658 438 C658.29753174 436.93894043 658.29753174 436.93894043 658.60107422 435.85644531 C661.62521373 424.99152017 664.15280473 414.13291252 666 403 C666.16387207 402.02095703 666.32774414 401.04191406 666.49658203 400.03320312 C667.04603208 396.7315214 667.58744011 393.42863775 668.125 390.125 C668.29588135 389.07876465 668.4667627 388.0325293 668.64282227 386.95458984 C668.88536743 385.43406006 668.88536743 385.43406006 669.1328125 383.8828125 C669.27605957 382.98965332 669.41930664 382.09649414 669.56689453 381.17626953 C670.63910775 373.31296963 671.16429113 365.55567253 671.203125 357.62109375 C671.21009399 356.65925171 671.21706299 355.69740967 671.22424316 354.7064209 C671.24155128 351.61673562 671.24796379 348.52723175 671.25 345.4375 C671.25100708 344.38265411 671.25201416 343.32780823 671.25305176 342.24099731 C671.2429373 326.5979512 670.69105277 311.44083976 668 296 C667.69496375 294.10943124 667.39028146 292.21880533 667.0859375 290.328125 C661.24706339 255.30392816 649.75193865 221.32819341 633 190 C632.67241699 189.37818848 632.34483398 188.75637695 632.00732422 188.11572266 C613.72724181 153.61217744 587.28450749 119.50701717 556.58984375 95.09765625 C554.27830752 93.2254165 552.11042159 91.2789073 549.9375 89.25 C538.232954 78.77422307 524.77568109 70.29005167 511.27539062 62.34716797 C508.9881577 60.99298864 506.72023228 59.61021527 504.453125 58.22265625 C492.44527546 50.96203696 479.98330271 45.29026679 467 40 C465.75524902 39.48928955 465.75524902 39.48928955 464.48535156 38.96826172 C448.97068628 32.64099859 433.2781163 27.91563932 417 24 C415.783125 23.67386719 414.56625 23.34773438 413.3125 23.01171875 C407.7761522 21.62562199 402.13917966 20.84521662 396.5 20 C395.43007813 19.835 394.36015625 19.67 393.2578125 19.5 C389.84114548 18.98060169 386.42093525 18.49042785 383 18 C381.83251221 17.81614746 380.66502441 17.63229492 379.4621582 17.44287109 C367.06330493 15.64523487 354.69844657 15.60550704 342.1875 15.625 C341.05748566 15.62454681 339.92747131 15.62409363 338.76321411 15.62362671 C322.7227061 15.64252749 307.36301644 16.28289726 291.61035156 19.48730469 Z " fill="#4179B7" transform="translate(0,0)"/>
<path d="M0 0 C1 2 1 2 0.13183594 4.70874023 C-0.42842285 6.33791382 -0.42842285 6.33791382 -1 8 C-3.07493336 18.58654379 -3.31502522 29.16202337 -3.26074219 39.9152832 C-3.25002599 42.43139817 -3.26070399 44.94679716 -3.2734375 47.46289062 C-3.28833432 61.14771329 -3.1983497 75.10416894 2.625 87.75 C2.97691406 88.54656006 3.32882812 89.34312012 3.69140625 90.16381836 C6.78959731 96.96729708 10.48502547 103.02771686 15 109 C15.57878906 109.79921875 16.15757812 110.5984375 16.75390625 111.421875 C30.9170357 130.1429014 49.43741903 144.02188008 70 155 C71.05316406 155.56847656 72.10632813 156.13695312 73.19140625 156.72265625 C75.32397458 157.87136483 77.45810767 159.01717291 79.59375 160.16015625 C118.72477953 181.2962972 155.56545827 203.37600563 170.8125 247.5625 C171.11502686 248.42496338 171.41755371 249.28742676 171.72924805 250.17602539 C174.76493692 259.35261823 175.15738648 268.3994246 175 278 C174.360625 277.360625 173.72125 276.72125 173.0625 276.0625 C172.60617187 275.60875 172.14984375 275.155 171.6796875 274.6875 C170.4247295 273.42670498 169.18185684 272.15385955 167.9453125 270.875 C151.47586641 254.00664 127.22793751 239.38680307 103 239 C101.65479804 238.89380895 100.30976042 238.78552645 98.96484375 238.67578125 C86.38067406 237.88807819 76.37637078 240.80045154 66.625 248.99609375 C64.84168357 250.90624088 63.41395801 252.80563786 62 255 C61.53464844 255.66386719 61.06929687 256.32773437 60.58984375 257.01171875 C48.38819874 276.25687895 53.88205915 303.24484862 58.29443359 323.95458984 C59.45460947 328.96221401 60.96425549 333.74382709 62.75390625 338.56640625 C64.19534615 342.53827355 65.31008448 346.55577678 66.4375 350.625 C68.3123306 357.30361038 70.78322549 363.27770478 73.9609375 369.4609375 C75 372 75 372 74 375 C63.84838149 369.56612523 54.12928845 364.06071856 45 357 C43.98164063 356.2575 42.96328125 355.515 41.9140625 354.75 C36.79146152 351.00607435 31.99364066 347.2776923 27.6328125 342.6640625 C25.89001624 340.88791129 24.04165636 339.33593918 22.125 337.75 C17.07190185 333.40335441 13.12133111 328.20923546 9 323 C8.12950119 321.97532565 7.25545527 320.95363198 6.375 319.9375 C-8 302.15789474 -8 302.15789474 -8 297 C-11.53774491 299.0158471 -14.76884307 301.27017501 -18.01025391 303.71801758 C-37.01973822 318.06099455 -59.2306743 331.92590869 -84 330 C-84 327 -84 327 -81.9453125 324.79296875 C-81.01460937 323.93316406 -80.08390625 323.07335937 -79.125 322.1875 C-55.85051778 299.79265353 -44.59665018 266.83645696 -43.76171875 235.01953125 C-43.73427182 232.97644911 -43.71651778 230.93361358 -43.70483398 228.89038086 C-43.68814296 226.88957337 -43.64441619 224.88904723 -43.59960938 222.88867188 C-43.49184608 213.54641202 -44.5691767 204.61696951 -45.98046875 195.38671875 C-48.23664723 180.2822904 -48.71508754 165.32321232 -48.63510513 150.08361053 C-48.62482003 147.9628911 -48.62145213 145.84223837 -48.61898804 143.72149658 C-48.58188139 126.82097653 -48.19268308 110.07255265 -45.3125 93.375 C-45.1298056 92.31249023 -45.1298056 92.31249023 -44.94342041 91.22851562 C-43.41259106 82.68972639 -41.02077256 74.59442386 -38.17993164 66.42333984 C-37.18306843 63.53113707 -36.28527524 60.64342624 -35.4453125 57.703125 C-28.87250542 35.43831556 -16.78430153 15.98079773 0 0 Z " fill="#3376B8" transform="translate(307,189)"/>
<path d="M0 0 C106.92 0 213.84 0 324 0 C324 0.33 324 0.66 324 1 C323.04609375 1.00257813 322.0921875 1.00515625 321.109375 1.0078125 C309.47305031 1.24916056 298.14595075 2.91253621 286.6875 4.8125 C285.53610535 4.99948456 285.53610535 4.99948456 284.3614502 5.19024658 C275.38730134 6.65851319 266.71156166 8.45250511 258.00219727 11.1027832 C255.10192218 11.96954021 252.19896825 12.69509149 249.25 13.375 C234.28384999 17.08184775 220.08547844 22.80825519 206 29 C205.24356201 29.3307251 204.48712402 29.6614502 203.70776367 30.00219727 C183.33629049 38.96824746 163.66561201 49.73562749 145.75 62.96875 C143.01899977 64.98596608 140.26064179 66.96113145 137.5 68.9375 C128.1717259 75.7313497 119.51135028 83.22039477 111 91 C110.05253906 91.84304687 109.10507813 92.68609375 108.12890625 93.5546875 C100.59912909 100.2846569 93.73081235 107.47688067 87 115 C86.28457031 115.78890625 85.56914063 116.5778125 84.83203125 117.390625 C82.28208621 120.23960411 80.00033425 122.99949862 77.875 126.1875 C76 129 76 129 73.6875 131.25 C67.43472104 137.64819242 62.8448503 145.67616879 57.91796875 153.109375 C56.71918957 154.91608904 55.51443052 156.71886608 54.30078125 158.515625 C51.33450326 162.90900399 48.54665773 167.34835582 46 172 C45.53722656 172.83402344 45.07445312 173.66804687 44.59765625 174.52734375 C40.17571751 182.54984329 35.80784994 190.49159621 32.74609375 199.140625 C31.74779618 201.6285289 30.35199344 203.85262877 28.97265625 206.14453125 C27.5007267 208.95242898 26.65725169 211.91797283 25.71875 214.9375 C24.81818977 217.52171632 23.41375333 219.66423362 22 222 C21.50980792 223.63397358 21.02490498 225.27032528 20.59765625 226.921875 C19.86667006 229.46360478 18.9361409 231.90165356 18 234.375 C16.4735351 238.49645523 15.31026262 242.51626762 14.4921875 246.83203125 C14 249 14 249 13.03515625 251.8125 C11.91812436 255.25211518 11.22541543 258.63322464 10.5625 262.1875 C9.69538862 266.75521896 8.70354378 271.22877746 7.375 275.6875 C5.73245025 281.3977253 5.29940035 287.084262 5 293 C4.34 293 3.68 293 3 293 C2.34 305.54 1.68 318.08 1 331 C0.67 331 0.34 331 0 331 C0 221.77 0 112.54 0 0 Z " fill="#FEFEFE" transform="translate(0,2)"/>
<path d="M0 0 C0.33 0 0.66 0 1 0 C1.03440186 0.87398438 1.06880371 1.74796875 1.10424805 2.6484375 C1.85222857 20.34948367 3.22611256 37.25128 7.42138672 54.53173828 C8.2397759 58.0228415 8.86274461 61.53392585 9.5 65.0625 C10.76527982 71.49735167 12.71729974 77.51761116 14.875 83.6953125 C15.74156901 86.24085895 16.4739909 88.6957363 17.0625 91.3125 C18.05731968 95.22545741 19.45762847 98.77589217 20.99609375 102.5 C21.91733731 104.79414739 22.73230794 107.0882784 23.5 109.4375 C24.62813501 112.8893479 25.78987415 116.32589391 27 119.75 C27.309375 120.63171875 27.61875 121.5134375 27.9375 122.421875 C29.05673946 125.13767664 30.48066415 127.49067138 32 130 C32.53869105 131.3392458 33.04270047 132.69332342 33.5 134.0625 C34.61927087 137.18713117 35.96285255 139.36868454 38 142 C38.72210384 143.6411451 39.44070876 145.28413841 40.125 146.94140625 C42.43649321 152.37960678 44.77233371 157.83142472 48.6875 162.3125 C50.90459848 164.88912796 51.86286852 166.85102053 53 170 C53.99 170.99 53.99 170.99 55 172 C55.309375 172.804375 55.61875 173.60875 55.9375 174.4375 C57.00692038 177.01669032 58.02541321 178.11126481 60 180 C60.33 180.99 60.66 181.98 61 183 C61.66 183.33 62.32 183.66 63 184 C64.47584894 186.27526711 65.78739367 188.51404267 66.875 191 C68.10720231 193.19058188 69.6475512 194.66861512 71.453125 196.39453125 C73.4102567 198.42579672 75.12627571 200.59948263 76.875 202.8125 C82.55727224 210.00296413 88.66884678 216.77607309 94.82421875 223.5625 C96.14353814 225.04051669 97.44382558 226.53624693 98.70703125 228.0625 C102.9995362 233.24274928 107.90768912 237.40501242 113.1328125 241.60546875 C115.92511612 243.93746074 118.43550605 246.42315696 121 249 C126.80110045 253.91153529 132.87976095 258.49514003 139 263 C140.19496094 263.88945313 140.19496094 263.88945313 141.4140625 264.796875 C146.79477436 268.76495159 152.2633093 272.58527879 157.8125 276.3125 C158.43455322 276.73305664 159.05660645 277.15361328 159.69750977 277.58691406 C163.35210347 280.02167755 167.03283132 282.09530822 171 284 C172.6694188 284.94927736 174.33848535 285.89919481 176.00390625 286.85546875 C176.66261719 287.23316406 177.32132813 287.61085938 178 288 C178.71027344 288.40863281 179.42054688 288.81726563 180.15234375 289.23828125 C193.84217989 296.91583548 208.19836293 303.7689669 223 309 C224.60425697 309.58178229 226.20841554 310.16383596 227.8125 310.74609375 C236.78506653 313.97483588 245.67055452 316.96877896 255 319 C256.34138363 319.30625197 257.6825104 319.61363024 259.0234375 319.921875 C262.86734844 320.79927553 266.71751439 321.64443079 270.57177734 322.47509766 C272.19016015 322.8249391 273.80768352 323.1787803 275.42431641 323.53662109 C288.23807113 326.3610343 300.91910622 328.00185951 314 329 C314 329.33 314 329.66 314 330 C210.38 330 106.76 330 0 330 C0 221.1 0 112.2 0 0 Z " fill="#FEFEFE" transform="translate(0,356)"/>
<path d="M0 0 C104.28 0 208.56 0 316 0 C316 100.65 316 201.3 316 305 C315.67 305 315.34 305 315 305 C314.83918945 303.95247559 314.67837891 302.90495117 314.51269531 301.82568359 C313.90288067 297.86933496 313.28119584 293.91492173 312.65625 289.9609375 C312.38943158 288.26253561 312.12566262 286.56365129 311.86523438 284.86425781 C310.40656201 275.36044634 308.70884681 266.20002708 305.89550781 256.99243164 C305.12793771 254.42751706 304.50505719 251.90553939 303.96875 249.28515625 C302.8903506 244.19440779 301.22344186 239.34179664 299.5 234.4375 C299.15251709 233.44733887 298.80503418 232.45717773 298.44702148 231.43701172 C292.4576838 214.64045237 285.6648529 198.29876128 276.95800781 182.72363281 C275.6424027 180.35661649 274.39070449 177.95648964 273.125 175.5625 C265.67612436 162.03961006 257.37063122 149.2613243 248 137 C247.38640625 136.18402344 246.7728125 135.36804688 246.140625 134.52734375 C232.30457478 116.37576358 216.56554478 98.40867198 198.6875 84.1875 C196.00774004 82.00630003 193.47355385 79.72084981 190.9375 77.375 C187.0652461 73.85532181 183.07916579 70.79811434 178.74609375 67.87109375 C176.14815107 66.10094504 173.60891174 64.26285836 171.07202148 62.40673828 C163.3279897 56.76553295 155.29560715 51.78555834 147 47 C146.22527344 46.55269531 145.45054687 46.10539062 144.65234375 45.64453125 C142.44946454 44.40090195 140.22811335 43.1979104 138 42 C137.41557129 41.68063477 136.83114258 41.36126953 136.22900391 41.03222656 C126.03060294 35.4640047 115.7322984 30.45096072 105 26 C104.35788574 25.73058594 103.71577148 25.46117188 103.05419922 25.18359375 C95.19629127 21.8967295 87.30310358 18.94367354 79.10400391 16.60546875 C76.5785842 15.87872927 74.06156089 15.12505498 71.54296875 14.375 C47.98684743 7.46094884 24.41051164 3.42414554 0 1 C0 0.67 0 0.34 0 0 Z " fill="#FDFDFD" transform="translate(368,2)"/>
<path d="M0 0 C0.33 0 0.66 0 1 0 C1 100.98 1 201.96 1 306 C-102.95 306 -206.9 306 -314 306 C-314 305.67 -314 305.34 -314 305 C-313.33693848 304.96036133 -312.67387695 304.92072266 -311.99072266 304.87988281 C-298.72781461 304.05052149 -286.03494413 302.76679328 -273.14916992 299.49658203 C-270.6728024 298.92439851 -268.18802898 298.48744326 -265.68359375 298.0546875 C-260.00846757 297.04939063 -254.49120488 295.65570311 -248.9375 294.125 C-248.02162109 293.88136719 -247.10574219 293.63773438 -246.16210938 293.38671875 C-240.69223193 291.89247056 -235.47856186 290.10082363 -230.25463867 287.89331055 C-227.98625476 286.994554 -225.7304692 286.31838221 -223.375 285.6875 C-215.95431863 283.5150355 -209.00657815 280.2271644 -202 277 C-201.07171387 276.57541504 -200.14342773 276.15083008 -199.18701172 275.71337891 C-172.18666271 263.29523757 -146.61871475 248.40720258 -124 229 C-122.97126572 228.14177232 -121.94124923 227.28507995 -120.91015625 226.4296875 C-103.72055325 212.12348515 -87.7878001 196.66481651 -74 179 C-73.21496094 178.01 -72.42992187 177.02 -71.62109375 176 C-57.00717286 157.43084289 -44.16499345 137.4530013 -34.01708984 116.09765625 C-32.94071391 113.87772778 -31.81205627 111.68982736 -30.67578125 109.5 C-16.91447912 82.49607207 -6.39614812 50.09919513 -3 20 C-2.48222616 16.37135061 -1.92835085 12.74837177 -1.375 9.125 C-1.11166241 7.37765187 -0.8486146 5.63026004 -0.5859375 3.8828125 C-0.39257812 2.60148437 -0.19921875 1.32015625 0 0 Z " fill="#FDFDFD" transform="translate(683,380)"/>
<path d="M0 0 C3.11539397 -0.17578674 6.22795333 -0.30244758 9.34631348 -0.41015625 C10.20641022 -0.46961426 11.06650696 -0.52907227 11.95266724 -0.59033203 C14.3164382 -0.63687079 16.03902852 -0.59811785 18.26037598 0.21484375 C20.50634442 2.62139337 21.85881237 5.25676083 23.26037598 8.21484375 C23.96432495 9.3740332 23.96432495 9.3740332 24.68249512 10.55664062 C25.89878834 12.60771813 27.11228535 14.66039475 28.32287598 16.71484375 C28.74375488 17.42253906 29.16463379 18.13023437 29.5982666 18.859375 C31.57690884 22.21539764 33.47414998 25.57583189 35.19006348 29.07421875 C37.68567731 34.15891509 40.51535899 39.0476271 43.32287598 43.96484375 C47.77072538 51.80177275 52.20421494 59.64594035 56.57287598 67.52734375 C57.04668701 68.37458008 57.52049805 69.22181641 58.00866699 70.09472656 C58.43848877 70.87299805 58.86831055 71.65126953 59.31115723 72.453125 C59.68925537 73.13415283 60.06735352 73.81518066 60.45690918 74.5168457 C61.26037598 76.21484375 61.26037598 76.21484375 61.26037598 78.21484375 C41.86037598 78.51484375 41.86037598 78.51484375 37.26037598 76.21484375 C37.26037598 91.06484375 37.26037598 105.91484375 37.26037598 121.21484375 C38.91037598 121.87484375 40.56037598 122.53484375 42.26037598 123.21484375 C43.26037598 124.21484375 43.26037598 124.21484375 43.37390137 126.16430664 C43.36604614 127.41328735 43.36604614 127.41328735 43.35803223 128.6875 C43.35319824 130.03618164 43.35319824 130.03618164 43.3482666 131.41210938 C43.33569824 132.83040039 43.33569824 132.83040039 43.32287598 134.27734375 C43.31836426 135.22673828 43.31385254 136.17613281 43.3092041 137.15429688 C43.29737726 139.50783906 43.27944119 141.86134907 43.26037598 144.21484375 C37.98037598 144.21484375 32.70037598 144.21484375 27.26037598 144.21484375 C27.15261614 140.94313528 27.07318146 137.67495829 27.01037598 134.40234375 C26.97686035 133.47357422 26.94334473 132.54480469 26.90881348 131.58789062 C26.88947754 130.24887695 26.88947754 130.24887695 26.86975098 128.8828125 C26.83833008 127.64954224 26.83833008 127.64954224 26.80627441 126.39135742 C27.26037598 124.21484375 27.26037598 124.21484375 29.15979004 122.4230957 C31.26037598 121.21484375 31.26037598 121.21484375 33.26037598 121.21484375 C32.93037598 106.36484375 32.60037598 91.51484375 32.26037598 76.21484375 C25.99037598 75.55484375 19.72037598 74.89484375 13.26037598 74.21484375 C13.36350098 75.61734375 13.46662598 77.01984375 13.57287598 78.46484375 C13.54380595 88.74109802 8.25101329 97.94513907 1.26037598 105.21484375 C-7.98520128 113.49229773 -17.78934862 117.83691991 -30.32946777 117.4609375 C-43.76516436 116.08905924 -53.04736042 110.76875094 -61.82946777 100.6796875 C-69.19026016 91.18140529 -70.87334617 81.05451025 -69.73962402 69.21484375 C-67.19206909 55.88567243 -60.83989562 46.81639028 -49.73962402 39.21484375 C-57.65535497 28.13282042 -66.94685461 18.0178659 -76.22790527 8.0703125 C-77.73962402 6.21484375 -77.73962402 6.21484375 -77.73962402 4.21484375 C-68.47157913 3.68600032 -59.20317747 3.16403326 -49.93428612 2.65023804 C-45.62783589 2.41131818 -41.3215307 2.17025368 -37.01550293 1.92382812 C-27.32968161 1.37079145 -17.64341712 0.85711143 -7.9519043 0.4140625 C-5.29972858 0.29207244 -2.65081996 0.15229127 0 0 Z " fill="#3477B8" transform="translate(400.7396240234375,202.78515625)"/>
<path d="M0 0 C0.92683594 0.00451172 1.85367188 0.00902344 2.80859375 0.01367188 C5.08079709 0.02538426 7.35286388 0.04178628 9.625 0.0625 C9.625 0.3925 9.625 0.7225 9.625 1.0625 C8.51125 1.041875 7.3975 1.02125 6.25 1 C-6.41855318 1.05728584 -16.88796785 3.78225922 -26.75 12.0546875 C-28.53153127 13.96676201 -29.96092062 15.8679495 -31.375 18.0625 C-31.84035156 18.72636719 -32.30570312 19.39023437 -32.78515625 20.07421875 C-44.98680126 39.31937895 -39.49294085 66.30734862 -35.08056641 87.01708984 C-33.92039053 92.02471401 -32.41074451 96.80632709 -30.62109375 101.62890625 C-29.17965385 105.60077355 -28.06491552 109.61827678 -26.9375 113.6875 C-25.0626694 120.36611038 -22.59177451 126.34020478 -19.4140625 132.5234375 C-18.375 135.0625 -18.375 135.0625 -19.375 138.0625 C-29.52661851 132.62862523 -39.24571155 127.12321856 -48.375 120.0625 C-49.39335937 119.32 -50.41171875 118.5775 -51.4609375 117.8125 C-56.58353848 114.06857435 -61.38135934 110.3401923 -65.7421875 105.7265625 C-67.48498376 103.95041129 -69.33334364 102.39843918 -71.25 100.8125 C-76.30309815 96.46585441 -80.25366889 91.27173546 -84.375 86.0625 C-85.24549881 85.03782565 -86.11954473 84.01613198 -87 83 C-101.375 65.22039474 -101.375 65.22039474 -101.375 60.0625 C-102.035 59.7325 -102.695 59.4025 -103.375 59.0625 C-102.81554687 58.62421875 -102.25609375 58.1859375 -101.6796875 57.734375 C-97.19420263 54.18637089 -92.7865223 50.57504322 -88.47680664 46.81665039 C-80.41847638 39.79736964 -72.0290674 33.32900611 -63.375 27.0625 C-62.54234619 26.45776855 -62.54234619 26.45776855 -61.69287109 25.84082031 C-57.97793139 23.16003023 -54.20157015 20.58033542 -50.375 18.0625 C-49.35817139 17.39105957 -49.35817139 17.39105957 -48.32080078 16.70605469 C-32.89194845 6.62179255 -18.72350327 -0.17361308 0 0 Z " fill="#52A9DC" transform="translate(400.375,425.9375)"/>
<path d="M0 0 C106.92 0 213.84 0 324 0 C324 0.33 324 0.66 324 1 C322.23849609 1.05607422 322.23849609 1.05607422 320.44140625 1.11328125 C310.57828457 1.49370269 301.12360235 2.45812749 291.44140625 4.37890625 C288 5 288 5 284 5 C284 4.34 284 3.68 284 3 C191.6 3 99.2 3 4 3 C4.33 98.7 4.66 194.4 5 293 C4.34 293 3.68 293 3 293 C2.34 305.54 1.68 318.08 1 331 C0.67 331 0.34 331 0 331 C0 221.77 0 112.54 0 0 Z " fill="#EFF0F0" transform="translate(0,2)"/>
<path d="M0 0 C2.75740681 2.75740681 3.36619707 5.97565575 4.4375 9.625 C5.77753465 14.07379623 7.10798089 18.48626815 8.8125 22.8125 C10 26 10 26 10 29 C20.23 29 30.46 29 41 29 C35.37631184 34.62368816 35.37631184 34.62368816 32.58984375 36.5703125 C31.99236328 36.99183594 31.39488281 37.41335937 30.77929688 37.84765625 C30.17150391 38.26917969 29.56371094 38.69070312 28.9375 39.125 C27.7171898 39.98140315 26.49713102 40.83816469 25.27734375 41.6953125 C24.42438721 42.28940918 24.42438721 42.28940918 23.55419922 42.89550781 C22.24027277 43.82925008 20.96134311 44.81194498 19.69140625 45.8046875 C18 47 18 47 16 47 C16.31453125 47.78761719 16.6290625 48.57523438 16.953125 49.38671875 C20.50304227 58.42189976 23.73357192 67.54899492 26 77 C21.79877385 75.55870344 18.74607422 73.46916884 15.25 70.75 C10.31357086 66.92228757 5.22573299 63.42254874 0 60 C-2.89738185 62.08118628 -5.79262293 64.16533139 -8.6875 66.25 C-9.50412109 66.83652344 -10.32074219 67.42304688 -11.16210938 68.02734375 C-14.49317489 70.4278687 -17.77941639 72.81933707 -20.95703125 75.421875 C-23 77 -23 77 -25 77 C-23.60737244 72.28997507 -22.19579786 67.5884856 -20.6875 62.9140625 C-20.4608667 62.20636719 -20.2342334 61.49867188 -20.00073242 60.76953125 C-19.547273 59.35655232 -19.08920984 57.94504134 -18.6262207 56.53515625 C-17.54342995 53.14713591 -17 50.59936986 -17 47 C-19.11824652 45.20114769 -21.13101197 43.70486441 -23.4375 42.1875 C-24.721031 41.30871976 -26.00358169 40.42850599 -27.28515625 39.546875 C-28.23285889 38.90202148 -28.23285889 38.90202148 -29.19970703 38.24414062 C-31.65092272 36.55016244 -34.01948549 34.76161044 -36.375 32.9375 C-37.08398438 32.38964844 -37.79296875 31.84179688 -38.5234375 31.27734375 C-39.01070313 30.85582031 -39.49796875 30.43429688 -40 30 C-40 29.67 -40 29.34 -40 29 C-29.77 29 -19.54 29 -9 29 C-8.67 26.69 -8.34 24.38 -8 22 C-7.51818707 20.23833174 -6.98889547 18.48874953 -6.40625 16.7578125 C-6.09816406 15.83742188 -5.79007812 14.91703125 -5.47265625 13.96875 C-5.15167969 13.0303125 -4.83070313 12.091875 -4.5 11.125 C-4.17902344 10.16335937 -3.85804688 9.20171875 -3.52734375 8.2109375 C-1.14060834 1.14060834 -1.14060834 1.14060834 0 0 Z " fill="#3879B9" transform="translate(337,103)"/>
<path d="M0 0 C0.33 0 0.66 0 1 0 C1.04487549 0.90540527 1.08975098 1.81081055 1.13598633 2.74365234 C2.30061753 27.01377272 2.30061753 27.01377272 6 51 C5.34 51 4.68 51 4 51 C4 142.08 4 233.16 4 327 C24.11582031 326.89300781 44.23164063 326.78601563 64.95703125 326.67578125 C77.73111456 326.61481967 90.50519454 326.55463241 103.27929688 326.49804688 C109.99536241 326.46825614 116.71142703 326.43827064 123.42749023 326.40795898 C124.26906762 326.4041688 125.110645 326.40037862 125.97772473 326.39647359 C139.50780411 326.33525551 153.03780341 326.26307314 166.56780497 326.1867362 C180.48625443 326.10845562 194.40472497 326.04220057 208.32328433 325.98676747 C216.88969775 325.95228147 225.45596243 325.90877001 234.02226516 325.85315516 C239.92198911 325.81575748 245.82169579 325.79019527 251.72151373 325.77332608 C255.10923135 325.7633092 258.49656401 325.7468933 261.88421059 325.71975899 C279.46779264 325.58287383 296.56806402 326.65477201 314 329 C314 329.33 314 329.66 314 330 C210.38 330 106.76 330 0 330 C0 221.1 0 112.2 0 0 Z " fill="#F0F1F1" transform="translate(0,356)"/>
<path d="M0 0 C2.43437924 5.96940867 4.76256612 11.96479272 6.93359375 18.03515625 C7.68037803 20.11138068 8.44492757 22.18126137 9.22265625 24.24609375 C23.70586222 63.26659669 27.95046116 108.86973405 22 150 C21.83338867 151.15177734 21.66677734 152.30355469 21.49511719 153.49023438 C19.48005433 167.05623616 17.37215846 180.48673201 13.11328125 193.5546875 C12.31428463 196.02737179 11.6333566 198.41206602 11.03125 200.9296875 C10.00787335 205.13571993 8.64870386 209.17802403 7.1875 213.25 C6.92324219 213.98943848 6.65898438 214.72887695 6.38671875 215.49072266 C2.67184411 225.7847653 -1.55324153 235.4915694 -7 245 C-8.98 244.34 -10.96 243.68 -13 243 C-12.50525337 239.04202694 -11.05489206 235.93889079 -9.23828125 232.41796875 C-4.98223109 224.10725881 -1.42134319 215.86436206 1.140625 206.875 C2 204 2 204 2.984375 201.6171875 C4.3120065 198.19598324 5.14788563 194.68657177 6 191.125 C6.95561203 187.17563465 7.92609654 183.25284189 9.06640625 179.3515625 C9.91684739 176.29851441 10.49286035 173.38365089 10.9375 170.25 C11.51681805 166.26833785 12.10862815 162.29112992 12.7578125 158.3203125 C12.8906665 157.50272461 13.02352051 156.68513672 13.16040039 155.84277344 C13.4200486 154.24925544 13.68208491 152.65612386 13.94702148 151.06347656 C15.78187463 139.68811466 16.23911332 128.38350514 16.25 116.875 C16.25151062 115.75816833 16.25151062 115.75816833 16.25305176 114.61877441 C16.2405996 100.903094 15.17497259 87.55353784 13 74 C12.85546387 73.0630127 12.71092773 72.12602539 12.56201172 71.16064453 C10.00654764 54.85717987 6.74908713 38.13256858 0 23 C-0.433125 21.39125 -0.433125 21.39125 -0.875 19.75 C-2.17311005 15.4229665 -4.05052359 11.58106993 -6.07421875 7.55078125 C-7.07649625 4.78923185 -7.18323675 3.66078112 -6 1 C-4 0 -4 0 0 0 Z " fill="#4170AF" transform="translate(608,233)"/>
<path d="M0 0 C2.9375 0.375 2.9375 0.375 6 1 C7 3 7 3 5.98364258 6.26196289 C5.460989 7.66816789 4.93068432 9.07154271 4.39453125 10.47265625 C3.81695994 12.02926076 3.2394896 13.58590273 2.66210938 15.14257812 C1.74825943 17.57846174 0.83119009 20.01307982 -0.08911133 22.4465332 C-6.02586415 38.20019489 -9.89290145 53.76854527 -12.38305664 70.4050293 C-12.69136062 72.46327356 -13.00995084 74.51973634 -13.33007812 76.57617188 C-15.32796046 89.52401234 -16.23850164 102.09797142 -16.25 115.1875 C-16.25100708 115.98512756 -16.25201416 116.78275513 -16.25305176 117.60455322 C-16.24169308 130.95401221 -15.31085576 143.83593899 -13 157 C-12.69477032 158.86058822 -12.39009159 160.7212669 -12.0859375 162.58203125 C-8.54323304 183.64418737 -2.87195867 203.14465896 5 223 C5.35916504 223.91555664 5.71833008 224.83111328 6.08837891 225.77441406 C6.43433105 226.6506543 6.7802832 227.52689453 7.13671875 228.4296875 C7.44182373 229.20296387 7.74692871 229.97624023 8.0612793 230.77294922 C9.03042845 233.07218942 10.11292787 235.27949357 11.25 237.5 C13 241 13 241 13 243 C10.35261084 244.4606285 9.10551666 245 6 245 C3.95754162 240.3617948 1.92352977 235.7200586 -0.09814453 231.07275391 C-0.86425956 229.31197519 -1.63301764 227.55234684 -2.40234375 225.79296875 C-10.92545109 205.88756471 -16.73225831 184.77404327 -19.66455078 163.33984375 C-20.00890386 160.93789334 -20.40112627 158.54826168 -20.80859375 156.15625 C-22.51651789 146.09892417 -23.715246 136.2131768 -24 126 C-24.02191406 125.26265625 -24.04382812 124.5253125 -24.06640625 123.765625 C-24.3261072 113.44684066 -23.92370845 103.22746351 -23.125 92.9375 C-23.04660889 91.915354 -22.96821777 90.89320801 -22.88745117 89.84008789 C-22.38967991 83.97516835 -21.57228946 78.26399095 -20.45947266 72.48510742 C-19.85843403 69.23432518 -19.4895689 65.97234023 -19.125 62.6875 C-18.30742448 56.34002395 -16.86304014 50.43404902 -14.99609375 44.3203125 C-14.0869501 41.28983366 -13.33461589 38.26950038 -12.625 35.1875 C-9.65357938 23.09188018 -4.9642228 11.40013996 0 0 Z " fill="#4A8AC3" transform="translate(79,233)"/>
<path d="M0 0 C225.72 0 451.44 0 684 0 C684 0.66 684 1.32 684 2 C633.05581641 2.20465339 582.11156387 2.38725205 531.16723841 2.5528124 C528.19815401 2.56246536 525.22906973 2.57215329 522.25998545 2.58184195 C421.26192406 2.91070832 320.26613391 3.07931896 146.19114882 2.57217997 C143.42726005 2.562464 140.66337116 2.55278609 137.89948225 2.54311228 C91.93290494 2.38197541 45.96641387 2.20255848 0 2 C0 1.34 0 0.68 0 0 Z " fill="#5E5F60" transform="translate(0,0)"/>
<path d="M0 0 C4.89872999 2.85759249 7.79346527 7.1303958 9.5625 12.4375 C10.30521668 19.29240973 9.61492623 24.7535775 5.5625 30.4375 C0.87706561 35.00279505 -3.75396949 36.72736199 -10.25 36.8125 C-16.85352551 36.67458853 -20.91139404 35.22217537 -26.03515625 31.17578125 C-30.22765228 26.72636346 -30.12240569 21.09507522 -30.02734375 15.29101562 C-29.77473105 10.63510233 -29.27505053 7.13765808 -26.03515625 3.69921875 C-18.46229653 -2.28130372 -9.09857342 -3.97310106 0 0 Z " fill="#3A7BB9" transform="translate(352.4375,592.5625)"/>
<path d="M0 0 C8.72598003 0.54892282 18.86559154 1.476587 26 7 C28.6979409 11.04691135 28.65804393 14.24746049 28 19 C25.53500606 23.92998788 23.88961052 25.06623369 19 28 C20.98 32.29 22.96 36.58 25 41 C18 41 18 41 15 40 C13.39453125 37.34765625 13.39453125 37.34765625 11.8125 34.0625 C11.28269531 32.98097656 10.75289063 31.89945313 10.20703125 30.78515625 C9 28 9 28 9 26 C7.02 25.67 5.04 25.34 3 25 C3.020625 26.0725 3.04125 27.145 3.0625 28.25 C3 32 3 32 2 36 C-0.97 36 -3.94 36 -7 36 C-4.41576507 8.83153014 -4.41576507 8.83153014 0 0 Z " fill="#3A7BB9" transform="translate(280,585)"/>
<path d="M0 0 C3.03087876 2.47980989 4.75859224 5.27577672 6 9 C6.40812847 13.32616181 6.4030579 16.88502037 3.75390625 20.51171875 C-0.44897932 24.07808713 -5.94203463 25.93880602 -11 28 C-10.34 31.3 -9.68 34.6 -9 38 C-13 40 -13 40 -16 40 C-16 39.34 -16 38.68 -16 38 C-16.66 38 -17.32 38 -18 38 C-18.37511719 36.90042969 -18.75023437 35.80085937 -19.13671875 34.66796875 C-21.78742645 26.9847454 -24.47933273 19.48636809 -28.1171875 12.19921875 C-29 10 -29 10 -29 6 C-26.4392555 5.01602415 -23.87658508 4.03770033 -21.3125 3.0625 C-20.2306543 2.64581055 -20.2306543 2.64581055 -19.12695312 2.22070312 C-12.77794697 -0.18554122 -6.71040481 -2.2368016 0 0 Z " fill="#3B7CBA" transform="translate(450,573)"/>
<path d="M0 0 C7.93284535 -0.33367463 11.33217402 1.47584057 17.25390625 6.75390625 C19.37890625 9.19140625 19.37890625 9.19140625 19.37890625 12.19140625 C16.81640625 13.56640625 16.81640625 13.56640625 13.37890625 14.19140625 C11.73828125 12.98828125 11.73828125 12.98828125 10.06640625 11.31640625 C7.31624202 8.66380882 5.60414072 7.67630481 1.75390625 7.50390625 C-1.81392665 7.74744433 -2.63520725 8.20228541 -5.62109375 10.50390625 C-8.76915716 14.73411646 -8.97851092 18.00885734 -8.62109375 23.19140625 C-7.28583045 26.35387195 -6.37686885 27.7715312 -3.37109375 29.44140625 C-0.13904912 30.32287297 3.05422512 30.80026729 6.37890625 31.19140625 C6.70890625 29.21140625 7.03890625 27.23140625 7.37890625 25.19140625 C4.73890625 24.20140625 2.09890625 23.21140625 -0.62109375 22.19140625 C0.12890625 17.44140625 0.12890625 17.44140625 2.37890625 15.19140625 C9.30890625 18.16140625 9.30890625 18.16140625 16.37890625 21.19140625 C14.39454288 32.4870131 14.39454288 32.4870131 11.37890625 37.19140625 C4.40750187 39.51520771 -2.71064182 38.6372654 -9.34765625 35.6328125 C-13.53161387 32.9800971 -15.8620949 29.79765617 -17.62109375 25.19140625 C-18.69904793 19.20364616 -18.536621 13.98700791 -15.37109375 8.69140625 C-14.48682489 7.49999638 -13.57282749 6.3296469 -12.62109375 5.19140625 C-11.98171875 4.38703125 -11.34234375 3.58265625 -10.68359375 2.75390625 C-7.30559254 0.19481442 -4.12217313 0.30102307 0 0 Z " fill="#3A7BB9" transform="translate(243.62109375,572.80859375)"/>
<path d="M0 0 C2.58297781 2.18991597 4.48415844 3.96831688 6 7 C6.16005611 10.68129052 5.90328416 13.38686337 5 17 C8.63 18.32 12.26 19.64 16 21 C13.875 23.5625 13.875 23.5625 11 26 C7.70908773 25.93143933 5.48659962 25.21896983 2.5 23.875 C-0.66176835 22.76838108 -2.78114299 23.2514286 -6 24 C-5.319375 25.0725 -4.63875 26.145 -3.9375 27.25 C-2.65276213 29.52123303 -2.00870397 30.67795318 -1.9375 33.3125 C-3.45231247 35.71837863 -5.39371497 36.04199154 -8 37 C-8.65226563 35.94941406 -9.30453125 34.89882812 -9.9765625 33.81640625 C-14.545798 26.47205527 -19.11886231 19.14312832 -24 12 C-22.51431013 7.65044742 -19.28107202 5.99830411 -15.5 3.8125 C-14.60861328 3.27979492 -14.60861328 3.27979492 -13.69921875 2.73632812 C-8.38569439 -0.42419935 -6.21243347 -1.47413676 0 0 Z " fill="#3A7BB9" transform="translate(203,104)"/>
<path d="M0 0 C2.62858064 2.57967681 3.44066887 4.45066608 3.625 8.125 C3.30845578 12.28931503 1.97317777 14.62168716 -1.0625 17.5625 C0.30120299 20.55470268 1.88658083 22.85276529 4.0625 25.3125 C4.60132813 25.92609375 5.14015625 26.5396875 5.6953125 27.171875 C6.31019531 27.86023438 6.31019531 27.86023438 6.9375 28.5625 C3.48222718 29.06306266 0.37618387 29.24118761 -3.0625 28.5625 C-5.25798871 26.68963081 -6.76502569 24.78529675 -8.39453125 22.41015625 C-10.22516304 20.01304522 -10.22516304 20.01304522 -15.0625 19.5625 C-15.0625 23.1925 -15.0625 26.8225 -15.0625 30.5625 C-17.3725 30.5625 -19.6825 30.5625 -22.0625 30.5625 C-22.57119827 26.8969862 -23.06786408 23.22993573 -23.5625 19.5625 C-23.70558594 18.53253906 -23.84867187 17.50257812 -23.99609375 16.44140625 C-24.75653874 10.75617468 -25.22794234 5.29783461 -25.0625 -0.4375 C-5.69064622 -4.10864657 -5.69064622 -4.10864657 0 0 Z " fill="#397AB9" transform="translate(324.0625,65.4375)"/>
<path d="M0 0 C2.31 0 4.62 0 7 0 C14.91490055 22.32001956 14.91490055 22.32001956 10.5 32.4375 C6.01780423 37.03175066 0.14570489 39.69752838 -6.25 40.3125 C-10.62430257 39.94797479 -13.76012051 39.01331449 -17 36 C-20.33529455 30.96868611 -21.97797779 26.30235651 -23.25 20.4375 C-23.42273438 19.70853516 -23.59546875 18.97957031 -23.7734375 18.22851562 C-24.71521912 14.07645459 -25.18955801 10.28536494 -25 6 C-22.36 5.67 -19.72 5.34 -17 5 C-16.83395264 5.68102783 -16.66790527 6.36205566 -16.49682617 7.0637207 C-15.73796255 10.14945025 -14.96294208 13.23089682 -14.1875 16.3125 C-13.92646484 17.38435547 -13.66542969 18.45621094 -13.39648438 19.56054688 C-13.13544922 20.58857422 -12.87441406 21.61660156 -12.60546875 22.67578125 C-12.36981201 23.62364502 -12.13415527 24.57150879 -11.89135742 25.5480957 C-10.95084318 28.13521828 -10.18727302 29.35507625 -8 31 C-4.70875268 31.42015923 -2.75411121 31.41849775 0.16796875 29.796875 C2.20755257 28.13666771 2.20755257 28.13666771 2.4609375 25.6171875 C2.29270629 20.24908243 1.77894057 15.35146532 0.4453125 10.1484375 C-0.26283223 6.73194979 -0.12646048 3.47766307 0 0 Z " fill="#3C7DBA" transform="translate(399,585)"/>
<path d="M0 0 C2.64 0.33 5.28 0.66 8 1 C18 26.66666667 18 26.66666667 18 34 C15.69 34 13.38 34 11 34 C9.5393715 31.35261084 9 30.10551666 9 27 C6.24894578 26.89187997 3.50214913 26.81265055 0.75 26.75 C-0.02730469 26.71648437 -0.80460937 26.68296875 -1.60546875 26.6484375 C-6.40532746 26.49140607 -6.40532746 26.49140607 -10.34375 29.03125 C-10.8903125 29.6809375 -11.436875 30.330625 -12 31 C-15.25 30.75 -15.25 30.75 -18 30 C-13.02324275 19.40046414 -6.99093263 9.39406572 0 0 Z " fill="#3C7CBA" transform="translate(374,64)"/>
<path d="M0 0 C3.61628957 1.02894427 6.97543828 2.50518951 10.390625 4.0546875 C11.80820569 4.68706854 13.22617901 5.31857012 14.64453125 5.94921875 C15.34594238 6.26197754 16.04735352 6.57473633 16.77001953 6.89697266 C21.42123805 8.94836417 26.12645432 10.87237209 30.828125 12.8046875 C30.828125 13.4646875 30.828125 14.1246875 30.828125 14.8046875 C28.203125 16.9921875 28.203125 16.9921875 24.828125 18.8046875 C23.879375 18.5778125 22.930625 18.3509375 21.953125 18.1171875 C18.85155768 17.4757848 18.85155768 17.4757848 16.7421875 19.17578125 C13.63303891 21.87524058 11.12029878 24.36642683 8.828125 27.8046875 C9.14319127 30.94690717 9.14319127 30.94690717 9.828125 33.8046875 C7.848125 35.1246875 5.868125 36.4446875 3.828125 37.8046875 C-6.76107085 10.30807562 -6.76107085 10.30807562 -6.171875 3.8046875 C-3.26022806 -0.29318598 -3.26022806 -0.29318598 0 0 Z " fill="#3B7BB9" transform="translate(156.171875,133.1953125)"/>
<path d="M0 0 C1.5 1.3125 1.5 1.3125 3 3 C3 3.99 3 4.98 3 6 C-7.37357631 11.55580866 -7.37357631 11.55580866 -13 12 C-11.02 14.97 -11.02 14.97 -9 18 C-8.16855469 17.6390625 -7.33710938 17.278125 -6.48046875 16.90625 C-5.39378906 16.4421875 -4.30710938 15.978125 -3.1875 15.5 C-2.10855469 15.0359375 -1.02960938 14.571875 0.08203125 14.09375 C3 13 3 13 6 13 C6.33 14.65 6.66 16.3 7 18 C5.58671871 18.81837442 4.16921654 19.62946219 2.75 20.4375 C1.56664062 21.11619141 1.56664062 21.11619141 0.359375 21.80859375 C-1.78833468 22.89311602 -3.65205061 23.53148716 -6 24 C-5.67 26.31 -5.34 28.62 -5 31 C-3.42798828 30.22462891 -3.42798828 30.22462891 -1.82421875 29.43359375 C-0.44556217 28.767712 0.93335793 28.10237565 2.3125 27.4375 C3.34793945 26.92413086 3.34793945 26.92413086 4.40429688 26.40039062 C9.66015625 23.88671875 9.66015625 23.88671875 13 25 C13.495 27.475 13.495 27.475 14 30 C-1.66509434 38.12264151 -1.66509434 38.12264151 -10 39 C-10.21914062 38.44054687 -10.43828125 37.88109375 -10.6640625 37.3046875 C-12.76794331 31.98511895 -14.94724515 26.7008145 -17.1875 21.4375 C-17.69667969 20.23996094 -18.20585937 19.04242188 -18.73046875 17.80859375 C-19.73384412 15.14846026 -19.73384412 15.14846026 -21 14 C-21.04063832 12.33382885 -21.042721 10.66611905 -21 9 C-19.7315625 8.52820313 -19.7315625 8.52820313 -18.4375 8.046875 C-12.10070124 5.65617365 -5.9865422 3.16934587 0 0 Z " fill="#3E7EBB" transform="translate(239,80)"/>
<path d="M0 0 C0 1.65 0 3.3 0 5 C-4.95 6.65 -9.9 8.3 -15 10 C-15 11.98 -15 13.96 -15 16 C-14.02417969 15.71125 -13.04835938 15.4225 -12.04296875 15.125 C-10.75787385 14.74978981 -9.47271419 14.37480138 -8.1875 14 C-6.92292969 13.62875 -5.65835937 13.2575 -4.35546875 12.875 C-1 12 -1 12 2 12 C2.33 13.98 2.66 15.96 3 18 C-1.62 19.32 -6.24 20.64 -11 22 C-11 23.98 -11 25.96 -11 28 C-5.06 26.68 0.88 25.36 7 24 C7 25.98 7 27.96 7 30 C-0.63042138 33.08151633 -8.7084324 36 -17 36 C-17.26478149 35.06148193 -17.26478149 35.06148193 -17.53491211 34.10400391 C-18.33371081 31.2770813 -19.13556672 28.45103491 -19.9375 25.625 C-20.21529297 24.64015625 -20.49308594 23.6553125 -20.77929688 22.640625 C-21.04677734 21.69960937 -21.31425781 20.75859375 -21.58984375 19.7890625 C-21.83597412 18.91975098 -22.08210449 18.05043945 -22.33569336 17.15478516 C-22.94172747 14.97999742 -22.94172747 14.97999742 -24 13 C-24.13415472 10.3276379 -24.04318541 7.67749512 -24 5 C-19.91673814 3.0944778 -15.83259637 2.329259 -11.4375 1.51171875 C-8.79914624 1.01100486 -8.79914624 1.01100486 -5.5625 -0.1875 C-3 -1 -3 -1 0 0 Z " fill="#3F7EBB" transform="translate(282,69)"/>
<path d="M0 0 C4.3913363 1.50771959 7.94520134 3.8797423 11.6875 6.5625 C15.70970455 9.4980153 15.70970455 9.4980153 20 12 C19.49396008 14.16874252 19.00016187 15.99967627 18 18 C14.39234967 16.68464431 11.45008538 15.08036562 8.3125 12.875 C5.41832911 10.63673812 5.41832911 10.63673812 2 10 C1.67 11.65 1.34 13.3 1 15 C4.63 17.64 8.26 20.28 12 23 C11.01 25.475 11.01 25.475 10 28 C5.53939095 26.60605967 2.36767444 24.11795013 -1.23046875 21.2421875 C-2.91248806 19.80848228 -2.91248806 19.80848228 -5 20 C-5.99 21.98 -6.98 23.96 -8 26 C-7.27425781 26.26554687 -6.54851562 26.53109375 -5.80078125 26.8046875 C-2.99829072 28.00072948 -0.69520648 29.40329107 1.8125 31.125 C2.60269531 31.66382813 3.39289063 32.20265625 4.20703125 32.7578125 C4.79871094 33.16773438 5.39039063 33.57765625 6 34 C5.49396008 36.16874252 5.00016187 37.99967627 4 40 C-0.36070484 38.49743504 -3.90240656 36.16020946 -7.625 33.5 C-8.76294074 32.69780304 -9.90095896 31.89571598 -11.0390625 31.09375 C-12.01617187 30.4028125 -12.99328125 29.711875 -14 29 C-14.99 28.34 -15.98 27.68 -17 27 C-16.37315118 23.7780784 -15.24522343 21.56249701 -13.41796875 18.84765625 C-12.89783203 18.07099609 -12.37769531 17.29433594 -11.84179688 16.49414062 C-11.29587891 15.69169922 -10.74996094 14.88925781 -10.1875 14.0625 C-9.38602539 12.86463867 -9.38602539 12.86463867 -8.56835938 11.64257812 C-5.86204953 7.62472329 -3.10704891 3.72394482 0 0 Z " fill="#3C7CBA" transform="translate(491,104)"/>
<path d="M0 0 C5.5760325 2.230413 9.81693678 6.28790518 13.125 11.25 C13.66416146 13.9102023 13.85870098 16.54262663 14.125 19.25 C11.815 19.25 9.505 19.25 7.125 19.25 C6.6609375 17.6103125 6.6609375 17.6103125 6.1875 15.9375 C5.54162103 13.69592006 4.8626883 11.4630649 4.125 9.25 C2.145 9.25 0.165 9.25 -1.875 9.25 C-1.46243995 12.13792033 -1.0078104 14.0507844 0.625 16.5 C2.71367808 20.32924315 3.36959918 23.89455654 3.125 28.25 C1.625 31.25 1.625 31.25 -0.875 33.25 C-5.16041463 34.59911201 -7.03577185 34.6778418 -11.0625 32.625 C-16.49014842 28.04165245 -19.53082325 22.90845949 -21.875 16.25 C-21.875 15.26 -21.875 14.27 -21.875 13.25 C-19.565 13.25 -17.255 13.25 -14.875 13.25 C-14.441875 14.4875 -14.00875 15.725 -13.5625 17 C-11.85537712 21.51231955 -11.85537712 21.51231955 -8.875 25.25 C-6.27644267 26.0542208 -6.27644267 26.0542208 -3.875 26.25 C-4.32945964 24.83208592 -4.78874944 23.41571954 -5.25 22 C-5.50523437 21.21109375 -5.76046875 20.4221875 -6.0234375 19.609375 C-6.81246221 17.25796969 -6.81246221 17.25796969 -7.9453125 15.19921875 C-9.4999686 11.93966668 -9.65607532 8.71687818 -8.875 5.25 C-6.62315002 1.94211003 -4.04442191 0.35168886 0 0 Z " fill="#3E7EBB" transform="translate(554.875,160.75)"/>
<path d="M0 0 C6.32620835 2.14447741 11.16660716 5.85344159 14.75 11.5 C15.6875 14.25 15.6875 14.25 15.6875 17.25 C13.0625 17.75 13.0625 17.75 9.6875 17.25 C7.95871095 15.31323632 6.586295 13.25459569 5.14453125 11.09765625 C3.74376325 8.98047384 3.74376325 8.98047384 0.8125 8.25 C0.11125 8.25 -0.59 8.25 -1.3125 8.25 C-0.76544803 12.19708386 0.34515342 14.47539006 2.75 17.625 C4.86036114 20.69368939 5.68706556 22.2476303 6.375 26 C5.47469743 30.25597579 4.23784304 31.75720595 0.6875 34.25 C-3.71747845 35.08112801 -6.60241981 34.37337773 -10.4375 32.25 C-15.53028702 28.76910479 -18.52166324 24.17001264 -20.125 18.25 C-20.186875 17.59 -20.24875 16.93 -20.3125 16.25 C-18.0025 16.25 -15.6925 16.25 -13.3125 16.25 C-12.9 17.1575 -12.4875 18.065 -12.0625 19 C-10.39405121 22.09854775 -9.06318968 24.08278995 -6.3125 26.25 C-4.9925 26.25 -3.6725 26.25 -2.3125 26.25 C-2.53044967 21.89100667 -3.66279302 19.58629336 -6.375 16.3125 C-8.62568029 13.45691532 -9.31168952 12.25398487 -10.0625 8.5625 C-9.3125 5.25 -9.3125 5.25 -6.75 2.25 C-3.3125 0.25 -3.3125 0.25 0 0 Z " fill="#3D7DBA" transform="translate(526.3125,131.75)"/>
<path d="M0 0 C1.72265625 1.5546875 1.72265625 1.5546875 2.9375 3.125 C2.9375 4.115 2.9375 5.105 2.9375 6.125 C-0.0625 8.125 -0.0625 8.125 -3.0625 8.125 C-3.64 7.465 -4.2175 6.805 -4.8125 6.125 C-6.99643922 3.80465047 -6.99643922 3.80465047 -10.5 3.6875 C-14.96194083 4.23545765 -17.63405722 5.30698192 -20.4375 8.875 C-21.39085544 12.30707959 -20.97904656 14.70322616 -20.0625 18.125 C-17.74041018 21.06631377 -15.96851047 21.97463539 -12.28515625 22.5859375 C-9.54150774 22.84723736 -6.81648049 23.02853834 -4.0625 23.125 C-3.7325 24.775 -3.4025 26.425 -3.0625 28.125 C-7.22601207 30.14367252 -10.45493396 30.59356604 -15.0625 30.125 C-20.72356951 28.06835677 -25.27062117 25.26078796 -28.3125 19.9375 C-29.60244796 15.10019514 -30.12285021 10.56253813 -28.08203125 5.87109375 C-25.96564801 2.33510576 -23.8201644 -0.9961678 -20.0625 -2.875 C-12.89886865 -4.56056032 -5.88037286 -4.78745508 0 0 Z " fill="#3E7EBB" transform="translate(432.0625,75.875)"/>
<path d="M0 0 C5.33457639 1.92167737 10.00166827 4.00922847 13 9 C13 9.99 13 10.98 13 12 C10.25 12.75 10.25 12.75 7 13 C4.8125 11.125 4.8125 11.125 3 9 C-0.74950614 7.75016462 -4.08393556 7.29021332 -8 8 C-10.7283849 10.81364693 -10.97131143 12.67295034 -11.3125 16.5625 C-11.0153274 19.8313986 -10.871937 21.38148401 -9 24 C-6.36428432 24.91956802 -6.36428432 24.91956802 -3.375 25.25 C-2.37210937 25.39953125 -1.36921875 25.5490625 -0.3359375 25.703125 C0.43492187 25.80109375 1.20578125 25.8990625 2 26 C2.66 27.98 3.32 29.96 4 32 C-0.40915748 34.20457874 -5.17876547 33.25054613 -9.6875 31.875 C-14.42585006 29.19291506 -18.23769571 25.28691286 -20 20 C-20.51525317 14.53831642 -19.66340792 10.79413426 -17 6 C-11.78269048 0.60182375 -7.35601575 -1.00006256 0 0 Z " fill="#3D7DBA" transform="translate(462,88)"/>
<path d="M0 0 C0.33 1.98 0.66 3.96 1 6 C-0.1446875 6.6496875 -0.1446875 6.6496875 -1.3125 7.3125 C-3.66564908 8.79005872 -5.26447315 9.87161751 -7 12 C-7.67814692 15.06861481 -7.58421182 17.91758714 -7 21 C-4.32252786 24.3265563 -2.71028182 24.89853117 1.5 25.5 C5.66303869 24.90528019 7.19914569 24.12095194 10 21 C11.35835671 17.37526891 11.35835671 17.37526891 12 14 C15.465 13.505 15.465 13.505 19 13 C18.59469682 18.87689614 17.86051612 22.32674365 14 27 C13.53851563 27.56203125 13.07703125 28.1240625 12.6015625 28.703125 C9.08178502 32.37742929 6.14812791 33.49825565 1.0625 33.8125 C-4.5732073 33.53672511 -7.51607804 31.83222674 -11.4765625 27.921875 C-14.47585396 24.13815346 -15.46429374 21.127879 -15.30859375 16.21875 C-14.49633793 10.37873344 -12.22899876 5.53764099 -7.5 1.9375 C-4.5789408 -0.03421496 -3.82095127 0 0 0 Z " fill="#3B7CBA" transform="translate(133,162)"/>
<path d="M0 0 C3.99136391 2.14919595 6.32306683 3.79228237 8 8 C8.69134 12.49370999 8.59535784 15.96363635 6.3125 19.9375 C2.46548446 23.36862196 0.18673986 24 -5 24 C-8.65694955 23.38358237 -10.93152662 22.06198468 -13.15234375 18.9453125 C-14.8558603 15.03585976 -14.75362518 11.14148152 -14 7 C-10.62437586 1.21321576 -6.63336797 -0.79600416 0 0 Z " fill="#F9FBFD" transform="translate(345,598)"/>
<path d="M0 0 C0.33 0 0.66 0 1 0 C1 32.67 1 65.34 1 99 C0.67 99 0.34 99 0 99 C-0.89505741 95.03102224 -1.27169963 91.15960512 -1.53515625 87.1015625 C-1.57831467 86.43905487 -1.62147308 85.77654724 -1.66593933 85.09396362 C-1.80364355 82.93794215 -1.9343598 80.78161035 -2.0625 78.625 C-2.12878601 77.51088745 -2.12878601 77.51088745 -2.19641113 76.37426758 C-3.2925416 57.61601641 -3.17825681 39.128258 -2.0625 20.375 C-2.01911499 19.64482666 -1.97572998 18.91465332 -1.93103027 18.16235352 C-1.80418207 16.07401913 -1.67116111 13.98619383 -1.53515625 11.8984375 C-1.456604 10.68849121 -1.37805176 9.47854492 -1.29711914 8.23193359 C-1.03833794 5.4170235 -0.62113608 2.75432087 0 0 Z " fill="#53A3D2" transform="translate(3,295)"/>
<path d="M0 0 C2.29013653 3.4352048 2.17842973 4.985331 2 9 C0.40233897 9.86627399 -1.20339944 10.71766465 -2.8125 11.5625 C-3.70582031 12.03816406 -4.59914063 12.51382813 -5.51953125 13.00390625 C-8 14 -8 14 -11 13 C-11.94921875 10.71484375 -11.94921875 10.71484375 -12.6875 7.9375 C-12.93886719 7.01839844 -13.19023437 6.09929688 -13.44921875 5.15234375 C-13.63097656 4.44207031 -13.81273437 3.73179687 -14 3 C-9.12318926 0.61135801 -5.56098826 -0.65423391 0 0 Z " fill="#F6F9FC" transform="translate(445,580)"/>
<path d="M0 0 C1.60568666 0.28317926 3.20952047 0.57687791 4.8125 0.875 C6.15248047 1.11863281 6.15248047 1.11863281 7.51953125 1.3671875 C10 2 10 2 13 4 C12.125 10.875 12.125 10.875 11 12 C6.47357775 12.15088074 2.41699488 12.10424872 -2 11 C-1.85892253 9.54119891 -1.71197585 8.08296449 -1.5625 6.625 C-1.48128906 5.81289063 -1.40007812 5.00078125 -1.31640625 4.1640625 C-1 2 -1 2 0 0 Z " fill="#F4F8FB" transform="translate(287,593)"/>
<path d="M0 0 C0.625 3.375 0.625 3.375 1 7 C-1 9 -1 9 -3.34765625 9.23046875 C-4.24355469 9.21628906 -5.13945312 9.20210937 -6.0625 9.1875 C-6.96097656 9.18105469 -7.85945313 9.17460938 -8.78515625 9.16796875 C-11 9 -11 9 -12 8 C-12.14115161 5.32941149 -12.04247107 2.67567762 -12 0 C-7.66726186 -0.92844389 -4.33273814 -0.92844389 0 0 Z " fill="#F1F6FA" transform="translate(319,70)"/>
<path d="M0 0 C1.6875 0.875 1.6875 0.875 3.6875 2.875 C3.6875 5.62488098 3.2477675 7.25769928 1.3828125 9.3125 C-2.68572443 12.875 -2.68572443 12.875 -6.3125 12.875 C-8.5625 10.0625 -8.5625 10.0625 -10.3125 6.875 C-9.03100079 3.03050237 -7.52912902 2.44596681 -4.09375 0.6015625 C-2.3125 -0.125 -2.3125 -0.125 0 0 Z " fill="#F2F7FA" transform="translate(198.3125,110.125)"/>
<path d="M0 0 C2.86562595 2.47906057 4.1617794 5.12161059 5.6875 8.5625 C6.12449219 9.53316406 6.56148437 10.50382812 7.01171875 11.50390625 C8 14 8 14 8 16 C5.35261084 17.4606285 4.10551666 18 1 18 C-2.02187243 12.31887983 -2.38359584 8.29023665 -1 2 C-0.67 1.34 -0.34 0.68 0 0 Z " fill="#384994" transform="translate(84,460)"/>
<path d="M0 0 C0.66 0 1.32 0 2 0 C2.50757862 1.41396902 3.00574925 2.83131729 3.5 4.25 C3.7784375 5.03890625 4.056875 5.8278125 4.34375 6.640625 C5 9 5 9 5 13 C-2.42857143 13.14285714 -2.42857143 13.14285714 -6 12 C-4.43358249 7.69235185 -2.31663844 3.93828536 0 0 Z " fill="#DFEAF4" transform="translate(376,72)"/>
<path d="M0 0 C1.43931117 0.45261358 2.87638999 0.91232979 4.3125 1.375 C5.11300781 1.63023437 5.91351563 1.88546875 6.73828125 2.1484375 C9 3 9 3 12 5 C10.75686537 8.72940389 9.23014784 9.84656811 6 12 C5.01 11.67 4.02 11.34 3 11 C2.05078125 8.49609375 2.05078125 8.49609375 1.3125 5.4375 C1.06113281 4.42558594 0.80976563 3.41367188 0.55078125 2.37109375 C0.36902344 1.58863281 0.18726563 0.80617187 0 0 Z " fill="#EEF4F9" transform="translate(157,141)"/>
<path d="M0 0 C0.33 0 0.66 0 1 0 C1.0867982 3.79152334 1.14032207 7.58279296 1.1875 11.375 C1.21263672 12.45523437 1.23777344 13.53546875 1.26367188 14.6484375 C1.27333984 15.6796875 1.28300781 16.7109375 1.29296875 17.7734375 C1.3086792 18.72653809 1.32438965 19.67963867 1.34057617 20.66162109 C1.22818604 21.43328613 1.1157959 22.20495117 1 23 C0.01 23.66 -0.98 24.32 -2 25 C-1.86040799 21.77053202 -1.71221895 18.54151309 -1.5625 15.3125 C-1.52318359 14.40048828 -1.48386719 13.48847656 -1.44335938 12.54882812 C-1.40146484 11.66259766 -1.35957031 10.77636719 -1.31640625 9.86328125 C-1.27974854 9.05157471 -1.24309082 8.23986816 -1.20532227 7.40356445 C-0.98962569 4.87855515 -0.54100548 2.47399303 0 0 Z " fill="#66AED7" transform="translate(3,295)"/>
<path d="M0 0 C0.99 0.33 1.98 0.66 3 1 C2.01 1.495 2.01 1.495 1 2 C1 2.99 1 3.98 1 5 C0.01 5.66 -0.98 6.32 -2 7 C-3.2188121 10.55672179 -3.2188121 10.55672179 -4 14 C-4.99 14 -5.98 14 -7 14 C-6.44010697 10.00987629 -5.24330232 7.4744948 -2.9375 4.1875 C-2.38964844 3.39730469 -1.84179688 2.60710938 -1.27734375 1.79296875 C-0.64505859 0.90544922 -0.64505859 0.90544922 0 0 Z " fill="#455EA0" transform="translate(610,534)"/>
<path d="M0 0 C1 2 1 2 0.0625 5.125 C-0.288125 6.07375 -0.63875 7.0225 -1 8 C-2.0828125 8.12375 -2.0828125 8.12375 -3.1875 8.25 C-6.55313254 9.14750201 -8.41612816 10.7114278 -11 13 C-9.46356148 9.31930113 -7.21849055 7.01224796 -4.375 4.25 C-3.55773437 3.45078125 -2.74046875 2.6515625 -1.8984375 1.828125 C-0.95871094 0.92320312 -0.95871094 0.92320312 0 0 Z " fill="#4281BC" transform="translate(307,189)"/>
<path d="M0 0 C0.66 0.33 1.32 0.66 2 1 C-3.94 6.445 -3.94 6.445 -10 12 C-10.66 11.34 -11.32 10.68 -12 10 C-8.04 6.7 -4.08 3.4 0 0 Z " fill="#62ACDA" transform="translate(128,77)"/>
<path d="M0 0 C0.33 0 0.66 0 1 0 C1.34548714 6.33393082 0.29342747 11.10261508 -2 17 C-2.33 17 -2.66 17 -3 17 C-2.54775239 11.08507728 -1.8417395 5.64800112 0 0 Z " fill="#7DB5DC" transform="translate(63,281)"/>
<path d="M0 0 C0.66 0.33 1.32 0.66 2 1 C-0.64 3.64 -3.28 6.28 -6 9 C-6 6 -6 6 -3.5625 3.375 C-2.716875 2.59125 -1.87125 1.8075 -1 1 C-0.67 0.67 -0.34 0.34 0 0 Z " fill="#508AC1" transform="translate(331,593)"/>
<path d="M0 0 C0.66 0 1.32 0 2 0 C2 1.65 2 3.3 2 5 C0.68 5.33 -0.64 5.66 -2 6 C-1.125 1.125 -1.125 1.125 0 0 Z " fill="#304D96" transform="translate(605,542)"/>
</svg>
